<mxfile host="app.diagrams.net" modified="2023-08-14T03:06:48.946Z" agent="Mozilla/5.0 (Windows NT 10.0; Win64; x64) AppleWebKit/537.36 (KHTML, like Gecko) Chrome/115.0.0.0 Safari/537.36" version="21.6.6" etag="dkgBpzkOSl9M8TPMU9ma" type="github">
  <diagram name="Page-1" id="_eOM6pkb_bDxfX7_9ofI">
    <mxGraphModel>
      <root>
        <mxCell id="0" />
        <mxCell id="1" parent="0" />
      </root>
    </mxGraphModel>
  </diagram>
</mxfile>
